<svg width="52" height="61" viewBox="0 0 52 61" fill="none" xmlns="http://www.w3.org/2000/svg">
<path d="M40.0054 5.37308C39.6555 5.15721 39.2619 5.05799 38.8673 5.08623C38.4727 5.11446 38.0922 5.26905 37.7673 5.53321L9.60059 28.4082C9.31364 28.6431 9.07929 28.9559 8.91747 29.3198C8.75565 29.6838 8.67114 30.0882 8.67114 30.4987C8.67114 30.9092 8.75565 31.3136 8.91747 31.6776C9.07929 32.0416 9.31364 32.3543 9.60059 32.5892L37.7673 55.4642C38.0923 55.7281 38.4727 55.8826 38.8672 55.911C39.2618 55.9395 39.6554 55.8407 40.0056 55.6255C40.3557 55.4104 40.649 55.0869 40.8537 54.6902C41.0584 54.2935 41.1666 53.8387 41.1668 53.375V7.625C41.1668 7.16105 41.0586 6.70593 40.8539 6.30897C40.6492 5.91201 40.3558 5.58836 40.0054 5.37308ZM36.8334 48.523L14.6403 30.5L36.8334 12.477V48.523Z" fill="#820609"/>
</svg>
