<svg width="52" height="61" viewBox="0 0 52 61" fill="none" xmlns="http://www.w3.org/2000/svg">
<path d="M11.9948 55.6269C12.3453 55.8408 12.7389 55.9386 13.1332 55.91C13.5275 55.8813 13.9077 55.7272 14.233 55.4643L42.3997 32.5893C42.6875 32.3553 42.9227 32.0431 43.0851 31.6792C43.2476 31.3154 43.3325 30.9107 43.3325 30.5C43.3325 30.0893 43.2476 29.6846 43.0851 29.3208C42.9227 28.9569 42.6875 28.6447 42.3997 28.4108L14.233 5.53575C13.9083 5.27003 13.5277 5.11398 13.1326 5.08462C12.7374 5.05525 12.343 5.1537 11.9924 5.36922C11.6417 5.58475 11.3481 5.90908 11.1438 6.30685C10.9395 6.70463 10.8321 7.16058 10.8335 7.625V53.375C10.8334 53.839 10.9416 54.2941 11.1463 54.691C11.3511 55.088 11.6445 55.4116 11.9948 55.6269ZM15.1668 12.477L37.36 30.5L15.1668 48.523V12.477Z" fill="#8B1A1A"/>
</svg>
